<svg xmlns="http://www.w3.org/2000/svg" viewBox="6 12 52 45" width="320" height="277" fill="none" role="img" aria-label="MetaFlux animated mark">
  <defs>
    <linearGradient id="flux" x1="6" y1="42" x2="58" y2="20" gradientUnits="userSpaceOnUse"><stop offset="0" stop-color="#5BCEFA"></stop><stop offset="0.55" stop-color="#cfc0e8"></stop><stop offset="1" stop-color="#F5A9B8"></stop></linearGradient>
    <style>
      .p  { stroke-dasharray: 1 1.001; stroke-dashoffset: 1;
            animation: mfx-climb 1.05s cubic-bezier(.65,0,.2,1) forwards; }
      .e2 { animation-duration: .95s; animation-delay: .05s; }
      .e1 { animation-duration: 1s;   animation-delay: .18s; }
      .pm { animation-delay: .34s; }
      @keyframes mfx-climb { to { stroke-dashoffset: 0; } }
      @media (prefers-reduced-motion: reduce) {
        .p { stroke-dashoffset: 0; animation: none; }
      }
    </style>
    
  </defs>
  <path class="p e2" pathLength="1" d="M4.00 50.95 L4.50 50.60 L5.00 50.22 L5.50 49.82 L6.00 49.39 L6.50 48.94 L7.00 48.47 L7.50 47.97 L8.00 47.45 L8.50 46.91 L9.00 46.34 L9.50 45.77 L10.00 45.17 L10.50 44.56 L11.00 43.94 L11.50 43.31 L12.00 42.68 L12.50 42.04 L13.00 41.40 L13.50 40.76 L14.00 40.12 L14.50 39.49 L15.00 38.87 L15.50 38.26 L16.00 37.66 L16.50 37.08 L17.00 36.52 L17.50 35.98 L18.00 35.45 L18.50 34.95 L19.00 34.47 L19.50 34.02 L20.00 33.60 L20.50 33.19 L21.00 32.82 L21.50 32.47 L22.00 32.15 L22.50 31.86 L23.00 31.59 L23.50 31.35 L24.00 31.13 L24.50 30.93 L25.00 30.76 L25.50 30.61 L26.00 30.48 L26.50 30.37 L27.00 30.28 L27.50 30.20 L28.00 30.14 L28.50 30.10 L29.00 30.06 L29.50 30.04 L30.00 30.02 L30.50 30.01 L31.00 30.00 L31.50 30.00 L32.00 30.00 L32.50 30.00 L33.00 30.00 L33.50 30.01 L34.00 30.02 L34.50 30.04 L35.00 30.06 L35.50 30.10 L36.00 30.14 L36.50 30.20 L37.00 30.28 L37.50 30.37 L38.00 30.48 L38.50 30.61 L39.00 30.76 L39.50 30.93 L40.00 31.13 L40.50 31.35 L41.00 31.59 L41.50 31.86 L42.00 32.15 L42.50 32.47 L43.00 32.82 L43.50 33.19 L44.00 33.60 L44.50 34.02 L45.00 34.47 L45.50 34.95 L46.00 35.45 L46.50 35.98 L47.00 36.52 L47.50 37.08 L48.00 37.66 L48.50 38.26 L49.00 38.87 L49.50 39.49 L50.00 40.12 L50.50 40.76 L51.00 41.40 L51.50 42.04 L52.00 42.68 L52.50 43.31 L53.00 43.94 L53.50 44.56 L54.00 45.17 L54.50 45.77 L55.00 46.34 L55.50 46.91 L56.00 47.45 L56.50 47.97 L57.00 48.47 L57.50 48.94 L58.00 49.39 L58.50 49.82 L59.00 50.22 L59.50 50.60 L60.00 50.95" stroke="url(#flux)" stroke-width="2.2" stroke-linecap="round" opacity="0.20"></path>
  <path class="p e1" pathLength="1" d="M4.00 51.66 L4.50 51.56 L5.00 51.45 L5.50 51.32 L6.00 51.16 L6.50 50.97 L7.00 50.75 L7.50 50.50 L8.00 50.20 L8.50 49.86 L9.00 49.48 L9.50 49.05 L10.00 48.57 L10.50 48.03 L11.00 47.45 L11.50 46.81 L12.00 46.11 L12.50 45.37 L13.00 44.57 L13.50 43.73 L14.00 42.85 L14.50 41.92 L15.00 40.96 L15.50 39.98 L16.00 38.97 L16.50 37.94 L17.00 36.91 L17.50 35.87 L18.00 34.84 L18.50 33.82 L19.00 32.82 L19.50 31.84 L20.00 30.90 L20.50 29.99 L21.00 29.12 L21.50 28.30 L22.00 27.52 L22.50 26.80 L23.00 26.14 L23.50 25.53 L24.00 24.97 L24.50 24.47 L25.00 24.02 L25.50 23.63 L26.00 23.29 L26.50 23.00 L27.00 22.75 L27.50 22.55 L28.00 22.39 L28.50 22.26 L29.00 22.16 L29.50 22.10 L30.00 22.05 L30.50 22.02 L31.00 22.01 L31.50 22.00 L32.00 22.00 L32.50 22.00 L33.00 22.01 L33.50 22.02 L34.00 22.05 L34.50 22.10 L35.00 22.16 L35.50 22.26 L36.00 22.39 L36.50 22.55 L37.00 22.75 L37.50 23.00 L38.00 23.29 L38.50 23.63 L39.00 24.02 L39.50 24.47 L40.00 24.97 L40.50 25.53 L41.00 26.14 L41.50 26.80 L42.00 27.52 L42.50 28.30 L43.00 29.12 L43.50 29.99 L44.00 30.90 L44.50 31.84 L45.00 32.82 L45.50 33.82 L46.00 34.84 L46.50 35.87 L47.00 36.91 L47.50 37.94 L48.00 38.97 L48.50 39.98 L49.00 40.96 L49.50 41.92 L50.00 42.85 L50.50 43.73 L51.00 44.57 L51.50 45.37 L52.00 46.11 L52.50 46.81 L53.00 47.45 L53.50 48.03 L54.00 48.57 L54.50 49.05 L55.00 49.48 L55.50 49.86 L56.00 50.20 L56.50 50.50 L57.00 50.75 L57.50 50.97 L58.00 51.16 L58.50 51.32 L59.00 51.45 L59.50 51.56 L60.00 51.66" stroke="url(#flux)" stroke-width="2.4" stroke-linecap="round" opacity="0.42"></path>
  <path class="p pm" pathLength="1" d="M4.00 50.00 L4.50 50.00 L5.00 50.00 L5.50 49.99 L6.00 49.99 L6.50 49.98 L7.00 49.97 L7.50 49.96 L8.00 49.94 L8.50 49.91 L9.00 49.87 L9.50 49.81 L10.00 49.73 L10.50 49.63 L11.00 49.50 L11.50 49.33 L12.00 49.11 L12.50 48.84 L13.00 48.50 L13.50 48.10 L14.00 47.61 L14.50 47.03 L15.00 46.37 L15.50 45.60 L16.00 44.73 L16.50 43.76 L17.00 42.68 L17.50 41.51 L18.00 40.25 L18.50 38.91 L19.00 37.49 L19.50 36.02 L20.00 34.52 L20.50 32.98 L21.00 31.45 L21.50 29.93 L22.00 28.43 L22.50 26.99 L23.00 25.60 L23.50 24.29 L24.00 23.07 L24.50 21.94 L25.00 20.91 L25.50 20.00 L26.00 19.18 L26.50 18.48 L27.00 17.88 L27.50 17.38 L28.00 16.98 L28.50 16.66 L29.00 16.42 L29.50 16.24 L30.00 16.12 L30.50 16.05 L31.00 16.02 L31.50 16.00 L32.00 16.00 L32.50 16.00 L33.00 16.02 L33.50 16.05 L34.00 16.12 L34.50 16.24 L35.00 16.42 L35.50 16.66 L36.00 16.98 L36.50 17.38 L37.00 17.88 L37.50 18.48 L38.00 19.18 L38.50 20.00 L39.00 20.91 L39.50 21.94 L40.00 23.07 L40.50 24.29 L41.00 25.60 L41.50 26.99 L42.00 28.43 L42.50 29.93 L43.00 31.45 L43.50 32.98 L44.00 34.52 L44.50 36.02 L45.00 37.49 L45.50 38.91 L46.00 40.25 L46.50 41.51 L47.00 42.68 L47.50 43.76 L48.00 44.73 L48.50 45.60 L49.00 46.37 L49.50 47.03 L50.00 47.61 L50.50 48.10 L51.00 48.50 L51.50 48.84 L52.00 49.11 L52.50 49.33 L53.00 49.50 L53.50 49.63 L54.00 49.73 L54.50 49.81 L55.00 49.87 L55.50 49.91 L56.00 49.94 L56.50 49.96 L57.00 49.97 L57.50 49.98 L58.00 49.99 L58.50 49.99 L59.00 50.00 L59.50 50.00 L60.00 50.00" stroke="url(#flux)" stroke-width="5.4" stroke-linecap="round"></path>
</svg>